<mxfile host="Electron" modified="2023-10-11T04:09:55.073Z" agent="Mozilla/5.0 (Windows NT 10.0; Win64; x64) AppleWebKit/537.36 (KHTML, like Gecko) draw.io/22.0.2 Chrome/114.0.5735.289 Electron/25.8.4 Safari/537.36" etag="R6FoQz7e6wU4qHFDSwIA" version="22.0.2" type="device">
  <diagram name="Page-1" id="4RQ78uOHNz9-AvgiA-zj">
    <mxGraphModel dx="1775" dy="4747" grid="1" gridSize="10" guides="1" tooltips="1" connect="1" arrows="1" fold="1" page="1" pageScale="1" pageWidth="4681" pageHeight="3300" math="0" shadow="0">
      <root>
        <mxCell id="0" />
        <mxCell id="1" parent="0" />
        <mxCell id="q-VrSPOYVZLqt5bqGyS9-1" value="KHACH HANG ĐÃ ĐĂNG KÝ" style="shape=umlActor;verticalLabelPosition=bottom;verticalAlign=top;html=1;outlineConnect=0;" parent="1" vertex="1">
          <mxGeometry x="1060" y="-2760" width="30" height="60" as="geometry" />
        </mxCell>
        <mxCell id="q-VrSPOYVZLqt5bqGyS9-6" value="NHÂN VIÊN GIAO DỊCH" style="shape=umlActor;verticalLabelPosition=bottom;verticalAlign=top;html=1;outlineConnect=0;" parent="1" vertex="1">
          <mxGeometry x="2810" y="-1163" width="30" height="60" as="geometry" />
        </mxCell>
        <mxCell id="q-VrSPOYVZLqt5bqGyS9-7" value="DAI DIEN CHO VAY" style="shape=umlActor;verticalLabelPosition=bottom;verticalAlign=top;html=1;outlineConnect=0;" parent="1" vertex="1">
          <mxGeometry x="1400" y="-950" width="30" height="60" as="geometry" />
        </mxCell>
        <mxCell id="q-VrSPOYVZLqt5bqGyS9-17" value="KHACH HANG CHƯA ĐĂNG KÝ" style="shape=umlActor;verticalLabelPosition=bottom;verticalAlign=top;html=1;outlineConnect=0;" parent="1" vertex="1">
          <mxGeometry x="1060" y="-3050" width="30" height="60" as="geometry" />
        </mxCell>
        <mxCell id="ky-Em5fr_ZoJciQnDSSW-9" value="Nhân viên" style="shape=umlActor;verticalLabelPosition=bottom;verticalAlign=top;html=1;outlineConnect=0;" parent="1" vertex="1">
          <mxGeometry x="3180" y="-1495" width="30" height="65" as="geometry" />
        </mxCell>
        <mxCell id="ky-Em5fr_ZoJciQnDSSW-16" value="Quản lý khách hàng" style="ellipse;whiteSpace=wrap;html=1;" parent="1" vertex="1">
          <mxGeometry x="2970" y="-1232.5" width="140" height="50" as="geometry" />
        </mxCell>
        <mxCell id="ky-Em5fr_ZoJciQnDSSW-26" value="" style="endArrow=none;html=1;rounded=0;entryX=0;entryY=0.5;entryDx=0;entryDy=0;exitX=1;exitY=0.3333333333333333;exitDx=0;exitDy=0;exitPerimeter=0;" parent="1" source="q-VrSPOYVZLqt5bqGyS9-6" target="ky-Em5fr_ZoJciQnDSSW-16" edge="1">
          <mxGeometry width="50" height="50" relative="1" as="geometry">
            <mxPoint x="2890" y="-943" as="sourcePoint" />
            <mxPoint x="2940" y="-993" as="targetPoint" />
          </mxGeometry>
        </mxCell>
        <mxCell id="ky-Em5fr_ZoJciQnDSSW-27" value="Quản lý hợp đồng vay" style="ellipse;whiteSpace=wrap;html=1;" parent="1" vertex="1">
          <mxGeometry x="2970" y="-1063" width="140" height="50" as="geometry" />
        </mxCell>
        <mxCell id="ky-Em5fr_ZoJciQnDSSW-30" value="&amp;lt;&amp;lt;include&amp;gt;&amp;gt;" style="html=1;verticalAlign=bottom;labelBackgroundColor=none;endArrow=open;endFill=0;dashed=1;rounded=0;entryX=0;entryY=0.5;entryDx=0;entryDy=0;exitX=1;exitY=0.5;exitDx=0;exitDy=0;" parent="1" source="ky-Em5fr_ZoJciQnDSSW-27" target="ky-Em5fr_ZoJciQnDSSW-31" edge="1">
          <mxGeometry width="160" relative="1" as="geometry">
            <mxPoint x="3130" y="-877.5" as="sourcePoint" />
            <mxPoint x="3230" y="-877.5" as="targetPoint" />
          </mxGeometry>
        </mxCell>
        <mxCell id="ky-Em5fr_ZoJciQnDSSW-31" value="Tạo hợp đồng vay mới" style="ellipse;whiteSpace=wrap;html=1;" parent="1" vertex="1">
          <mxGeometry x="3510" y="-1073" width="120" height="50" as="geometry" />
        </mxCell>
        <mxCell id="ky-Em5fr_ZoJciQnDSSW-32" value="Cập nhật thông tin hợp đồng vay" style="ellipse;whiteSpace=wrap;html=1;" parent="1" vertex="1">
          <mxGeometry x="3710" y="-1013" width="120" height="50" as="geometry" />
        </mxCell>
        <mxCell id="ky-Em5fr_ZoJciQnDSSW-33" value="&amp;lt;&amp;lt;include&amp;gt;&amp;gt;" style="html=1;verticalAlign=bottom;labelBackgroundColor=none;endArrow=open;endFill=0;dashed=1;rounded=0;entryX=0;entryY=0.5;entryDx=0;entryDy=0;exitX=1;exitY=0.5;exitDx=0;exitDy=0;" parent="1" source="ky-Em5fr_ZoJciQnDSSW-34" target="ky-Em5fr_ZoJciQnDSSW-32" edge="1">
          <mxGeometry width="160" relative="1" as="geometry">
            <mxPoint x="3430" y="-993" as="sourcePoint" />
            <mxPoint x="3230" y="-827.5" as="targetPoint" />
          </mxGeometry>
        </mxCell>
        <mxCell id="ky-Em5fr_ZoJciQnDSSW-34" value="Xem danh sách hợp đồng vay" style="ellipse;whiteSpace=wrap;html=1;" parent="1" vertex="1">
          <mxGeometry x="3510" y="-943" width="120" height="50" as="geometry" />
        </mxCell>
        <mxCell id="ky-Em5fr_ZoJciQnDSSW-35" value="Xóa hợp đồng vay" style="ellipse;whiteSpace=wrap;html=1;" parent="1" vertex="1">
          <mxGeometry x="3710" y="-923" width="120" height="50" as="geometry" />
        </mxCell>
        <mxCell id="ky-Em5fr_ZoJciQnDSSW-36" value="&amp;lt;&amp;lt;include&amp;gt;&amp;gt;" style="html=1;verticalAlign=bottom;labelBackgroundColor=none;endArrow=open;endFill=0;dashed=1;rounded=0;entryX=0;entryY=0.5;entryDx=0;entryDy=0;exitX=1;exitY=0.5;exitDx=0;exitDy=0;" parent="1" source="ky-Em5fr_ZoJciQnDSSW-27" target="ky-Em5fr_ZoJciQnDSSW-34" edge="1">
          <mxGeometry width="160" relative="1" as="geometry">
            <mxPoint x="3130" y="-867.5" as="sourcePoint" />
            <mxPoint x="3530" y="-827.5" as="targetPoint" />
          </mxGeometry>
        </mxCell>
        <mxCell id="ky-Em5fr_ZoJciQnDSSW-37" value="&amp;lt;&amp;lt;include&amp;gt;&amp;gt;" style="html=1;verticalAlign=bottom;labelBackgroundColor=none;endArrow=open;endFill=0;dashed=1;rounded=0;entryX=0;entryY=0.5;entryDx=0;entryDy=0;exitX=1;exitY=0.5;exitDx=0;exitDy=0;" parent="1" source="ky-Em5fr_ZoJciQnDSSW-34" target="ky-Em5fr_ZoJciQnDSSW-35" edge="1">
          <mxGeometry width="160" relative="1" as="geometry">
            <mxPoint x="3420" y="-863" as="sourcePoint" />
            <mxPoint x="3530" y="-827.5" as="targetPoint" />
          </mxGeometry>
        </mxCell>
        <mxCell id="ky-Em5fr_ZoJciQnDSSW-38" value="Xem chi tiết hợp đồng vay" style="ellipse;whiteSpace=wrap;html=1;" parent="1" vertex="1">
          <mxGeometry x="3710" y="-823" width="120" height="50" as="geometry" />
        </mxCell>
        <mxCell id="ky-Em5fr_ZoJciQnDSSW-39" value="&amp;lt;&amp;lt;include&amp;gt;&amp;gt;" style="html=1;verticalAlign=bottom;labelBackgroundColor=none;endArrow=open;endFill=0;dashed=1;rounded=0;entryX=0;entryY=0.5;entryDx=0;entryDy=0;exitX=1;exitY=0.5;exitDx=0;exitDy=0;" parent="1" target="ky-Em5fr_ZoJciQnDSSW-38" edge="1">
          <mxGeometry width="160" relative="1" as="geometry">
            <mxPoint x="3630" y="-913" as="sourcePoint" />
            <mxPoint x="3710" y="-893" as="targetPoint" />
          </mxGeometry>
        </mxCell>
        <mxCell id="ky-Em5fr_ZoJciQnDSSW-40" value="" style="endArrow=none;html=1;rounded=0;entryX=0;entryY=0.5;entryDx=0;entryDy=0;exitX=1;exitY=0.3333333333333333;exitDx=0;exitDy=0;exitPerimeter=0;" parent="1" source="q-VrSPOYVZLqt5bqGyS9-6" edge="1">
          <mxGeometry width="50" height="50" relative="1" as="geometry">
            <mxPoint x="2840" y="-977" as="sourcePoint" />
            <mxPoint x="2970" y="-1043" as="targetPoint" />
          </mxGeometry>
        </mxCell>
        <mxCell id="ky-Em5fr_ZoJciQnDSSW-44" value="ĐĂNG KÝ KHÁCH HÀNG MỚI" style="ellipse;whiteSpace=wrap;html=1;" parent="1" vertex="1">
          <mxGeometry x="1340" y="-3040" width="120" height="80" as="geometry" />
        </mxCell>
        <mxCell id="ky-Em5fr_ZoJciQnDSSW-45" value="" style="endArrow=none;html=1;rounded=0;entryX=0;entryY=0.5;entryDx=0;entryDy=0;" parent="1" target="ky-Em5fr_ZoJciQnDSSW-44" edge="1">
          <mxGeometry width="50" height="50" relative="1" as="geometry">
            <mxPoint x="1080" y="-3020" as="sourcePoint" />
            <mxPoint x="1130" y="-3070" as="targetPoint" />
          </mxGeometry>
        </mxCell>
        <mxCell id="ky-Em5fr_ZoJciQnDSSW-46" value="" style="endArrow=none;html=1;rounded=0;" parent="1" edge="1">
          <mxGeometry width="50" height="50" relative="1" as="geometry">
            <mxPoint x="1080" y="-2720" as="sourcePoint" />
            <mxPoint x="1320" y="-2780" as="targetPoint" />
          </mxGeometry>
        </mxCell>
        <mxCell id="ky-Em5fr_ZoJciQnDSSW-47" value="QUẢN LÝ THÔNG TIN CÁ NHÂN" style="ellipse;whiteSpace=wrap;html=1;" parent="1" vertex="1">
          <mxGeometry x="1320" y="-2830" width="120" height="80" as="geometry" />
        </mxCell>
        <mxCell id="ky-Em5fr_ZoJciQnDSSW-52" value="KHACH HANG" style="shape=umlActor;verticalLabelPosition=bottom;verticalAlign=top;html=1;outlineConnect=0;" parent="1" vertex="1">
          <mxGeometry x="900" y="-2880" width="30" height="60" as="geometry" />
        </mxCell>
        <mxCell id="ky-Em5fr_ZoJciQnDSSW-55" value="" style="endArrow=classic;html=1;rounded=0;exitX=0.5;exitY=0.5;exitDx=0;exitDy=0;exitPerimeter=0;entryX=1;entryY=0.3333333333333333;entryDx=0;entryDy=0;entryPerimeter=0;" parent="1" source="q-VrSPOYVZLqt5bqGyS9-17" target="ky-Em5fr_ZoJciQnDSSW-52" edge="1">
          <mxGeometry width="50" height="50" relative="1" as="geometry">
            <mxPoint x="1020" y="-2890" as="sourcePoint" />
            <mxPoint x="970" y="-2870" as="targetPoint" />
          </mxGeometry>
        </mxCell>
        <mxCell id="ky-Em5fr_ZoJciQnDSSW-56" value="" style="endArrow=classic;html=1;rounded=0;exitX=0.5;exitY=0.5;exitDx=0;exitDy=0;exitPerimeter=0;" parent="1" source="q-VrSPOYVZLqt5bqGyS9-1" target="ky-Em5fr_ZoJciQnDSSW-52" edge="1">
          <mxGeometry width="50" height="50" relative="1" as="geometry">
            <mxPoint x="1020" y="-2750" as="sourcePoint" />
            <mxPoint x="1070" y="-2800" as="targetPoint" />
          </mxGeometry>
        </mxCell>
        <mxCell id="ky-Em5fr_ZoJciQnDSSW-59" value="QUẢN LÝ NHÂN VIÊN" style="ellipse;whiteSpace=wrap;html=1;" parent="1" vertex="1">
          <mxGeometry x="3222.5" y="-1920" width="140" height="50" as="geometry" />
        </mxCell>
        <mxCell id="ky-Em5fr_ZoJciQnDSSW-60" value="NHÂN VIÊN QUẢN LÝ NHÂN SỰ" style="shape=umlActor;verticalLabelPosition=bottom;verticalAlign=top;html=1;outlineConnect=0;" parent="1" vertex="1">
          <mxGeometry x="2897.5" y="-1883" width="30" height="60" as="geometry" />
        </mxCell>
        <mxCell id="ky-Em5fr_ZoJciQnDSSW-61" value="" style="endArrow=none;html=1;rounded=0;entryX=0;entryY=0.5;entryDx=0;entryDy=0;exitX=0.5;exitY=0.5;exitDx=0;exitDy=0;exitPerimeter=0;" parent="1" source="ky-Em5fr_ZoJciQnDSSW-60" target="ky-Em5fr_ZoJciQnDSSW-59" edge="1">
          <mxGeometry width="50" height="50" relative="1" as="geometry">
            <mxPoint x="3087.5" y="-1863" as="sourcePoint" />
            <mxPoint x="3137.5" y="-1913" as="targetPoint" />
          </mxGeometry>
        </mxCell>
        <mxCell id="ky-Em5fr_ZoJciQnDSSW-72" value="QUẢN LÝ THÔNG TIN BÊN CHO VAY" style="ellipse;whiteSpace=wrap;html=1;" parent="1" vertex="1">
          <mxGeometry x="1620" y="-960" width="120" height="80" as="geometry" />
        </mxCell>
        <mxCell id="ky-Em5fr_ZoJciQnDSSW-74" value="" style="endArrow=none;html=1;rounded=0;entryX=0;entryY=0.5;entryDx=0;entryDy=0;" parent="1" target="ky-Em5fr_ZoJciQnDSSW-72" edge="1">
          <mxGeometry width="50" height="50" relative="1" as="geometry">
            <mxPoint x="1420" y="-910" as="sourcePoint" />
            <mxPoint x="1470" y="-960" as="targetPoint" />
          </mxGeometry>
        </mxCell>
        <mxCell id="ky-Em5fr_ZoJciQnDSSW-76" value="CẬP NHẬT THÔNG TIN" style="ellipse;whiteSpace=wrap;html=1;" parent="1" vertex="1">
          <mxGeometry x="1930" y="-850" width="120" height="50" as="geometry" />
        </mxCell>
        <mxCell id="ky-Em5fr_ZoJciQnDSSW-77" value="&amp;lt;&amp;lt;include&amp;gt;&amp;gt;" style="html=1;verticalAlign=bottom;labelBackgroundColor=none;endArrow=open;endFill=0;dashed=1;rounded=0;exitX=1;exitY=0.5;exitDx=0;exitDy=0;" parent="1" edge="1">
          <mxGeometry width="160" relative="1" as="geometry">
            <mxPoint x="1740" y="-925" as="sourcePoint" />
            <mxPoint x="1910" y="-920" as="targetPoint" />
          </mxGeometry>
        </mxCell>
        <mxCell id="ky-Em5fr_ZoJciQnDSSW-78" value="Xem thông tin" style="ellipse;whiteSpace=wrap;html=1;" parent="1" vertex="1">
          <mxGeometry x="1910" y="-940" width="120" height="50" as="geometry" />
        </mxCell>
        <mxCell id="ky-Em5fr_ZoJciQnDSSW-80" value="THÊM THÔNG TIN" style="ellipse;whiteSpace=wrap;html=1;" parent="1" vertex="1">
          <mxGeometry x="1720" y="-840" width="120" height="50" as="geometry" />
        </mxCell>
        <mxCell id="ky-Em5fr_ZoJciQnDSSW-81" value="QUẢN LÝ VAY TIỀN" style="ellipse;whiteSpace=wrap;html=1;" parent="1" vertex="1">
          <mxGeometry x="1320" y="-2670" width="120" height="60" as="geometry" />
        </mxCell>
        <mxCell id="ky-Em5fr_ZoJciQnDSSW-82" value="" style="endArrow=none;html=1;rounded=0;exitX=0.4;exitY=0.73;exitDx=0;exitDy=0;exitPerimeter=0;" parent="1" source="q-VrSPOYVZLqt5bqGyS9-1" edge="1">
          <mxGeometry width="50" height="50" relative="1" as="geometry">
            <mxPoint x="1080" y="-2580" as="sourcePoint" />
            <mxPoint x="1320" y="-2640" as="targetPoint" />
          </mxGeometry>
        </mxCell>
        <mxCell id="ky-Em5fr_ZoJciQnDSSW-84" value="&amp;lt;&amp;lt;include&amp;gt;&amp;gt;" style="html=1;verticalAlign=bottom;labelBackgroundColor=none;endArrow=open;endFill=0;dashed=1;rounded=0;entryX=0;entryY=0.5;entryDx=0;entryDy=0;exitX=1;exitY=0.5;exitDx=0;exitDy=0;" parent="1" edge="1">
          <mxGeometry width="160" relative="1" as="geometry">
            <mxPoint x="1440" y="-2650" as="sourcePoint" />
            <mxPoint x="1709.999999999999" y="-2665" as="targetPoint" />
          </mxGeometry>
        </mxCell>
        <mxCell id="ky-Em5fr_ZoJciQnDSSW-87" value="Chọn gói vay" style="ellipse;whiteSpace=wrap;html=1;" parent="1" vertex="1">
          <mxGeometry x="1710" y="-2695" width="120" height="50" as="geometry" />
        </mxCell>
        <mxCell id="ky-Em5fr_ZoJciQnDSSW-94" value="XEM TRƯỚC THÔNG TIN HỢP ĐỒNG VAY" style="ellipse;whiteSpace=wrap;html=1;" parent="1" vertex="1">
          <mxGeometry x="2040" y="-2720" width="170" height="70" as="geometry" />
        </mxCell>
        <mxCell id="ky-Em5fr_ZoJciQnDSSW-95" value="&amp;lt;&amp;lt;include&amp;gt;&amp;gt;" style="html=1;verticalAlign=bottom;labelBackgroundColor=none;endArrow=open;endFill=0;dashed=1;rounded=0;exitX=1.02;exitY=0.649;exitDx=0;exitDy=0;exitPerimeter=0;" parent="1" source="ky-Em5fr_ZoJciQnDSSW-94" edge="1">
          <mxGeometry width="160" relative="1" as="geometry">
            <mxPoint x="2200" y="-2690" as="sourcePoint" />
            <mxPoint x="2370" y="-2675" as="targetPoint" />
          </mxGeometry>
        </mxCell>
        <mxCell id="ky-Em5fr_ZoJciQnDSSW-97" value="GỬI YÊU CẦU VAY" style="ellipse;whiteSpace=wrap;html=1;" parent="1" vertex="1">
          <mxGeometry x="2370" y="-2710" width="120" height="80" as="geometry" />
        </mxCell>
        <mxCell id="UP0Hu_sTVNUc8gQ7AmKu-3" value="QUẢN LÝ THANH TOÁN" style="ellipse;whiteSpace=wrap;html=1;" vertex="1" parent="1">
          <mxGeometry x="1320" y="-2300" width="120" height="60" as="geometry" />
        </mxCell>
        <mxCell id="UP0Hu_sTVNUc8gQ7AmKu-5" value="LỊCH SỬ THANH TOÁN" style="ellipse;whiteSpace=wrap;html=1;" vertex="1" parent="1">
          <mxGeometry x="1620" y="-2340" width="120" height="60" as="geometry" />
        </mxCell>
        <mxCell id="UP0Hu_sTVNUc8gQ7AmKu-6" value="XEM CHI TIẾT THANH TOÁN TRƯỚC ĐÂY" style="ellipse;whiteSpace=wrap;html=1;" vertex="1" parent="1">
          <mxGeometry x="1820" y="-2360" width="120" height="60" as="geometry" />
        </mxCell>
        <mxCell id="UP0Hu_sTVNUc8gQ7AmKu-7" value="THANH TOÁN" style="ellipse;whiteSpace=wrap;html=1;" vertex="1" parent="1">
          <mxGeometry x="1620" y="-2130" width="120" height="60" as="geometry" />
        </mxCell>
        <mxCell id="UP0Hu_sTVNUc8gQ7AmKu-8" value="CHỌN HÌNH THỨC THANH TOÁN" style="ellipse;whiteSpace=wrap;html=1;" vertex="1" parent="1">
          <mxGeometry x="1840" y="-2130" width="120" height="60" as="geometry" />
        </mxCell>
        <mxCell id="UP0Hu_sTVNUc8gQ7AmKu-9" value="XEM TRƯỚC THANH TOÁN" style="ellipse;whiteSpace=wrap;html=1;" vertex="1" parent="1">
          <mxGeometry x="2040" y="-2130" width="120" height="60" as="geometry" />
        </mxCell>
        <mxCell id="UP0Hu_sTVNUc8gQ7AmKu-12" value="&amp;lt;&amp;lt;include&amp;gt;&amp;gt;" style="html=1;verticalAlign=bottom;labelBackgroundColor=none;endArrow=open;endFill=0;dashed=1;rounded=0;entryX=0;entryY=0.5;entryDx=0;entryDy=0;exitX=1;exitY=0.5;exitDx=0;exitDy=0;" edge="1" parent="1" source="UP0Hu_sTVNUc8gQ7AmKu-3" target="UP0Hu_sTVNUc8gQ7AmKu-5">
          <mxGeometry width="160" relative="1" as="geometry">
            <mxPoint x="1430" y="-2240" as="sourcePoint" />
            <mxPoint x="1590" y="-2240" as="targetPoint" />
          </mxGeometry>
        </mxCell>
        <mxCell id="UP0Hu_sTVNUc8gQ7AmKu-13" value="&amp;lt;&amp;lt;include&amp;gt;&amp;gt;" style="html=1;verticalAlign=bottom;labelBackgroundColor=none;endArrow=open;endFill=0;dashed=1;rounded=0;exitX=1;exitY=0.5;exitDx=0;exitDy=0;entryX=0;entryY=0.5;entryDx=0;entryDy=0;" edge="1" parent="1" source="UP0Hu_sTVNUc8gQ7AmKu-5" target="UP0Hu_sTVNUc8gQ7AmKu-6">
          <mxGeometry width="160" relative="1" as="geometry">
            <mxPoint x="1680" y="-2160" as="sourcePoint" />
            <mxPoint x="1840" y="-2160" as="targetPoint" />
          </mxGeometry>
        </mxCell>
        <mxCell id="UP0Hu_sTVNUc8gQ7AmKu-14" value="&amp;lt;&amp;lt;include&amp;gt;&amp;gt;" style="html=1;verticalAlign=bottom;labelBackgroundColor=none;endArrow=open;endFill=0;dashed=1;rounded=0;entryX=0;entryY=0.5;entryDx=0;entryDy=0;" edge="1" parent="1" source="UP0Hu_sTVNUc8gQ7AmKu-3" target="UP0Hu_sTVNUc8gQ7AmKu-7">
          <mxGeometry width="160" relative="1" as="geometry">
            <mxPoint x="1720" y="-2200" as="sourcePoint" />
            <mxPoint x="1990" y="-2240" as="targetPoint" />
          </mxGeometry>
        </mxCell>
        <mxCell id="UP0Hu_sTVNUc8gQ7AmKu-15" value="&amp;lt;&amp;lt;include&amp;gt;&amp;gt;" style="html=1;verticalAlign=bottom;labelBackgroundColor=none;endArrow=open;endFill=0;dashed=1;rounded=0;entryX=0;entryY=0.5;entryDx=0;entryDy=0;exitX=1;exitY=0.5;exitDx=0;exitDy=0;" edge="1" parent="1" source="UP0Hu_sTVNUc8gQ7AmKu-7" target="UP0Hu_sTVNUc8gQ7AmKu-8">
          <mxGeometry width="160" relative="1" as="geometry">
            <mxPoint x="1680" y="-2160" as="sourcePoint" />
            <mxPoint x="1840" y="-2160" as="targetPoint" />
          </mxGeometry>
        </mxCell>
        <mxCell id="UP0Hu_sTVNUc8gQ7AmKu-16" value="&amp;lt;&amp;lt;include&amp;gt;&amp;gt;" style="html=1;verticalAlign=bottom;labelBackgroundColor=none;endArrow=open;endFill=0;dashed=1;rounded=0;entryX=0;entryY=0.5;entryDx=0;entryDy=0;exitX=1;exitY=0.5;exitDx=0;exitDy=0;" edge="1" parent="1" source="UP0Hu_sTVNUc8gQ7AmKu-8" target="UP0Hu_sTVNUc8gQ7AmKu-9">
          <mxGeometry width="160" relative="1" as="geometry">
            <mxPoint x="1680" y="-2160" as="sourcePoint" />
            <mxPoint x="1840" y="-2160" as="targetPoint" />
          </mxGeometry>
        </mxCell>
        <mxCell id="UP0Hu_sTVNUc8gQ7AmKu-17" value="XEM DANH SÁCH CÁC KHOẢN THANH TOÁN PHẢI TRẢ" style="ellipse;whiteSpace=wrap;html=1;" vertex="1" parent="1">
          <mxGeometry x="1610" y="-1960" width="190" height="80" as="geometry" />
        </mxCell>
        <mxCell id="UP0Hu_sTVNUc8gQ7AmKu-18" value="&amp;lt;&amp;lt;include&amp;gt;&amp;gt;" style="html=1;verticalAlign=bottom;labelBackgroundColor=none;endArrow=open;endFill=0;dashed=1;rounded=0;entryX=0;entryY=0.5;entryDx=0;entryDy=0;exitX=0.5;exitY=1;exitDx=0;exitDy=0;" edge="1" parent="1" source="UP0Hu_sTVNUc8gQ7AmKu-3" target="UP0Hu_sTVNUc8gQ7AmKu-17">
          <mxGeometry width="160" relative="1" as="geometry">
            <mxPoint x="1500" y="-2170" as="sourcePoint" />
            <mxPoint x="1660" y="-2170" as="targetPoint" />
          </mxGeometry>
        </mxCell>
        <mxCell id="UP0Hu_sTVNUc8gQ7AmKu-19" value="&amp;lt;&amp;lt;extend&amp;gt;&amp;gt;" style="html=1;verticalAlign=bottom;labelBackgroundColor=none;endArrow=open;endFill=0;dashed=1;rounded=0;exitX=0.5;exitY=0;exitDx=0;exitDy=0;entryX=0.5;entryY=1;entryDx=0;entryDy=0;" edge="1" parent="1" source="UP0Hu_sTVNUc8gQ7AmKu-17" target="UP0Hu_sTVNUc8gQ7AmKu-7">
          <mxGeometry width="160" relative="1" as="geometry">
            <mxPoint x="1720" y="-2000" as="sourcePoint" />
            <mxPoint x="1880" y="-2000" as="targetPoint" />
          </mxGeometry>
        </mxCell>
        <mxCell id="UP0Hu_sTVNUc8gQ7AmKu-20" value="" style="endArrow=none;html=1;rounded=0;entryX=0;entryY=0.5;entryDx=0;entryDy=0;exitX=0.5;exitY=0.5;exitDx=0;exitDy=0;exitPerimeter=0;" edge="1" parent="1" source="q-VrSPOYVZLqt5bqGyS9-1" target="UP0Hu_sTVNUc8gQ7AmKu-3">
          <mxGeometry width="50" height="50" relative="1" as="geometry">
            <mxPoint x="1040" y="-2440" as="sourcePoint" />
            <mxPoint x="1090" y="-2490" as="targetPoint" />
          </mxGeometry>
        </mxCell>
        <mxCell id="UP0Hu_sTVNUc8gQ7AmKu-21" value="QUẢN LÝ CHO VAY" style="ellipse;whiteSpace=wrap;html=1;" vertex="1" parent="1">
          <mxGeometry x="1620" y="-710" width="120" height="80" as="geometry" />
        </mxCell>
        <mxCell id="UP0Hu_sTVNUc8gQ7AmKu-22" value="" style="endArrow=none;html=1;rounded=0;entryX=0;entryY=0.5;entryDx=0;entryDy=0;" edge="1" parent="1" source="q-VrSPOYVZLqt5bqGyS9-7" target="UP0Hu_sTVNUc8gQ7AmKu-21">
          <mxGeometry width="50" height="50" relative="1" as="geometry">
            <mxPoint x="1440" y="-760" as="sourcePoint" />
            <mxPoint x="1490" y="-810" as="targetPoint" />
          </mxGeometry>
        </mxCell>
        <mxCell id="UP0Hu_sTVNUc8gQ7AmKu-23" value="XEM YÊU CẦU CHO VAY" style="ellipse;whiteSpace=wrap;html=1;" vertex="1" parent="1">
          <mxGeometry x="1870" y="-530" width="120" height="80" as="geometry" />
        </mxCell>
        <mxCell id="UP0Hu_sTVNUc8gQ7AmKu-24" value="LỊCH SỬ CHO VAY" style="ellipse;whiteSpace=wrap;html=1;" vertex="1" parent="1">
          <mxGeometry x="1870" y="-360" width="120" height="80" as="geometry" />
        </mxCell>
        <mxCell id="UP0Hu_sTVNUc8gQ7AmKu-26" value="CHO VAY" style="ellipse;whiteSpace=wrap;html=1;" vertex="1" parent="1">
          <mxGeometry x="1870" y="-720" width="120" height="80" as="geometry" />
        </mxCell>
        <mxCell id="UP0Hu_sTVNUc8gQ7AmKu-27" value="&amp;lt;&amp;lt;extend&amp;gt;&amp;gt;" style="html=1;verticalAlign=bottom;labelBackgroundColor=none;endArrow=open;endFill=0;dashed=1;rounded=0;exitX=0.5;exitY=0;exitDx=0;exitDy=0;entryX=0.5;entryY=1;entryDx=0;entryDy=0;" edge="1" parent="1" source="UP0Hu_sTVNUc8gQ7AmKu-23" target="UP0Hu_sTVNUc8gQ7AmKu-26">
          <mxGeometry width="160" relative="1" as="geometry">
            <mxPoint x="1910" y="-600" as="sourcePoint" />
            <mxPoint x="2070" y="-600" as="targetPoint" />
          </mxGeometry>
        </mxCell>
        <mxCell id="UP0Hu_sTVNUc8gQ7AmKu-28" value="XEM CHI TIẾT YÊU CẦU VAY" style="ellipse;whiteSpace=wrap;html=1;" vertex="1" parent="1">
          <mxGeometry x="2100" y="-530" width="120" height="80" as="geometry" />
        </mxCell>
        <mxCell id="UP0Hu_sTVNUc8gQ7AmKu-29" value="&amp;lt;&amp;lt;include&amp;gt;&amp;gt;" style="html=1;verticalAlign=bottom;labelBackgroundColor=none;endArrow=open;endFill=0;dashed=1;rounded=0;exitX=1;exitY=0.5;exitDx=0;exitDy=0;entryX=0;entryY=0.5;entryDx=0;entryDy=0;" edge="1" parent="1" source="UP0Hu_sTVNUc8gQ7AmKu-23" target="UP0Hu_sTVNUc8gQ7AmKu-28">
          <mxGeometry width="160" relative="1" as="geometry">
            <mxPoint x="1990" y="-480" as="sourcePoint" />
            <mxPoint x="2100" y="-480" as="targetPoint" />
          </mxGeometry>
        </mxCell>
        <mxCell id="UP0Hu_sTVNUc8gQ7AmKu-30" value="XEM CHI TIẾT CHO VAY" style="ellipse;whiteSpace=wrap;html=1;" vertex="1" parent="1">
          <mxGeometry x="2080" y="-360" width="120" height="80" as="geometry" />
        </mxCell>
        <mxCell id="UP0Hu_sTVNUc8gQ7AmKu-31" value="XÁC NHẬN THÔNG TIN" style="ellipse;whiteSpace=wrap;html=1;" vertex="1" parent="1">
          <mxGeometry x="2330" y="-720" width="120" height="80" as="geometry" />
        </mxCell>
        <mxCell id="UP0Hu_sTVNUc8gQ7AmKu-33" value="NHẬP CÁC THÔNG TIN CHO VAY" style="ellipse;whiteSpace=wrap;html=1;" vertex="1" parent="1">
          <mxGeometry x="2110" y="-720" width="120" height="80" as="geometry" />
        </mxCell>
        <mxCell id="UP0Hu_sTVNUc8gQ7AmKu-34" value="&amp;lt;&amp;lt;include&amp;gt;&amp;gt;" style="html=1;verticalAlign=bottom;labelBackgroundColor=none;endArrow=open;endFill=0;dashed=1;rounded=0;entryX=0;entryY=0.5;entryDx=0;entryDy=0;" edge="1" parent="1" target="UP0Hu_sTVNUc8gQ7AmKu-33">
          <mxGeometry width="160" relative="1" as="geometry">
            <mxPoint x="1990" y="-670.5900000000001" as="sourcePoint" />
            <mxPoint x="2040" y="-650" as="targetPoint" />
          </mxGeometry>
        </mxCell>
        <mxCell id="UP0Hu_sTVNUc8gQ7AmKu-35" value="&amp;lt;&amp;lt;include&amp;gt;&amp;gt;" style="html=1;verticalAlign=bottom;labelBackgroundColor=none;endArrow=open;endFill=0;dashed=1;rounded=0;entryX=0;entryY=0.5;entryDx=0;entryDy=0;exitX=1;exitY=0.5;exitDx=0;exitDy=0;" edge="1" parent="1" source="UP0Hu_sTVNUc8gQ7AmKu-33" target="UP0Hu_sTVNUc8gQ7AmKu-31">
          <mxGeometry width="160" relative="1" as="geometry">
            <mxPoint x="1880" y="-470" as="sourcePoint" />
            <mxPoint x="2040" y="-470" as="targetPoint" />
          </mxGeometry>
        </mxCell>
        <mxCell id="UP0Hu_sTVNUc8gQ7AmKu-36" value="&amp;lt;&amp;lt;include&amp;gt;&amp;gt;" style="html=1;verticalAlign=bottom;labelBackgroundColor=none;endArrow=open;endFill=0;dashed=1;rounded=0;exitX=1;exitY=0.5;exitDx=0;exitDy=0;" edge="1" parent="1" source="UP0Hu_sTVNUc8gQ7AmKu-21">
          <mxGeometry width="160" relative="1" as="geometry">
            <mxPoint x="1730" y="-400" as="sourcePoint" />
            <mxPoint x="1860" y="-500" as="targetPoint" />
          </mxGeometry>
        </mxCell>
        <mxCell id="UP0Hu_sTVNUc8gQ7AmKu-37" value="&amp;lt;&amp;lt;include&amp;gt;&amp;gt;" style="html=1;verticalAlign=bottom;labelBackgroundColor=none;endArrow=open;endFill=0;dashed=1;rounded=0;exitX=1;exitY=0.5;exitDx=0;exitDy=0;entryX=0;entryY=0.5;entryDx=0;entryDy=0;" edge="1" parent="1" source="UP0Hu_sTVNUc8gQ7AmKu-21" target="UP0Hu_sTVNUc8gQ7AmKu-24">
          <mxGeometry width="160" relative="1" as="geometry">
            <mxPoint x="1730" y="-400" as="sourcePoint" />
            <mxPoint x="1890" y="-400" as="targetPoint" />
          </mxGeometry>
        </mxCell>
        <mxCell id="UP0Hu_sTVNUc8gQ7AmKu-38" value="&amp;lt;&amp;lt;include&amp;gt;&amp;gt;" style="html=1;verticalAlign=bottom;labelBackgroundColor=none;endArrow=open;endFill=0;dashed=1;rounded=0;entryX=0.003;entryY=0.371;entryDx=0;entryDy=0;entryPerimeter=0;exitX=1.018;exitY=0.599;exitDx=0;exitDy=0;exitPerimeter=0;" edge="1" parent="1" source="UP0Hu_sTVNUc8gQ7AmKu-21" target="UP0Hu_sTVNUc8gQ7AmKu-26">
          <mxGeometry width="160" relative="1" as="geometry">
            <mxPoint x="1740" y="-502.0799999999999" as="sourcePoint" />
            <mxPoint x="1880.3600000000001" y="-720" as="targetPoint" />
          </mxGeometry>
        </mxCell>
        <mxCell id="UP0Hu_sTVNUc8gQ7AmKu-41" value="&amp;lt;&amp;lt;include&amp;gt;&amp;gt;" style="html=1;verticalAlign=bottom;labelBackgroundColor=none;endArrow=open;endFill=0;dashed=1;rounded=0;entryX=0;entryY=0.5;entryDx=0;entryDy=0;exitX=1;exitY=0.5;exitDx=0;exitDy=0;" edge="1" parent="1" source="UP0Hu_sTVNUc8gQ7AmKu-24" target="UP0Hu_sTVNUc8gQ7AmKu-30">
          <mxGeometry width="160" relative="1" as="geometry">
            <mxPoint x="1920" y="-190" as="sourcePoint" />
            <mxPoint x="2080" y="-190" as="targetPoint" />
          </mxGeometry>
        </mxCell>
        <mxCell id="UP0Hu_sTVNUc8gQ7AmKu-42" value="QUẢN LÝ NỢ XẤU" style="ellipse;whiteSpace=wrap;html=1;" vertex="1" parent="1">
          <mxGeometry x="1240" y="-1790" width="190" height="100" as="geometry" />
        </mxCell>
        <mxCell id="UP0Hu_sTVNUc8gQ7AmKu-43" value="" style="endArrow=none;html=1;rounded=0;exitX=0;exitY=0.5;exitDx=0;exitDy=0;" edge="1" parent="1" source="UP0Hu_sTVNUc8gQ7AmKu-42">
          <mxGeometry width="50" height="50" relative="1" as="geometry">
            <mxPoint x="1070" y="-2270" as="sourcePoint" />
            <mxPoint x="1080" y="-2720" as="targetPoint" />
          </mxGeometry>
        </mxCell>
        <mxCell id="UP0Hu_sTVNUc8gQ7AmKu-45" value="" style="endArrow=none;html=1;rounded=0;entryX=0;entryY=0.5;entryDx=0;entryDy=0;exitX=1;exitY=0.3333333333333333;exitDx=0;exitDy=0;exitPerimeter=0;" edge="1" parent="1" source="q-VrSPOYVZLqt5bqGyS9-7" target="UP0Hu_sTVNUc8gQ7AmKu-42">
          <mxGeometry width="50" height="50" relative="1" as="geometry">
            <mxPoint x="1150" y="-1630" as="sourcePoint" />
            <mxPoint x="1200" y="-1680" as="targetPoint" />
            <Array as="points">
              <mxPoint x="1230" y="-930" />
            </Array>
          </mxGeometry>
        </mxCell>
        <mxCell id="UP0Hu_sTVNUc8gQ7AmKu-47" value="XEM LỊCH SỬ NỢ XẤU CỦA TÔI" style="ellipse;whiteSpace=wrap;html=1;" vertex="1" parent="1">
          <mxGeometry x="2160" y="-1970" width="120" height="80" as="geometry" />
        </mxCell>
        <mxCell id="UP0Hu_sTVNUc8gQ7AmKu-57" value="&amp;lt;&amp;lt;extend&amp;gt;&amp;gt;" style="html=1;verticalAlign=bottom;labelBackgroundColor=none;endArrow=open;endFill=0;dashed=1;rounded=0;entryX=1;entryY=1;entryDx=0;entryDy=0;exitX=0;exitY=0.5;exitDx=0;exitDy=0;" edge="1" parent="1" source="UP0Hu_sTVNUc8gQ7AmKu-60" target="UP0Hu_sTVNUc8gQ7AmKu-42">
          <mxGeometry width="160" relative="1" as="geometry">
            <mxPoint x="1879.9999999999995" y="-1699.5000000000005" as="sourcePoint" />
            <mxPoint x="1760" y="-1690" as="targetPoint" />
          </mxGeometry>
        </mxCell>
        <mxCell id="UP0Hu_sTVNUc8gQ7AmKu-58" value="Condition: Là nhân viên giao dịch" style="shape=note2;boundedLbl=1;whiteSpace=wrap;html=1;size=25;verticalAlign=top;align=center;" vertex="1" parent="1">
          <mxGeometry x="1990" y="-1720" width="120" height="90" as="geometry" />
        </mxCell>
        <mxCell id="UP0Hu_sTVNUc8gQ7AmKu-59" value="" style="endArrow=none;dashed=1;html=1;dashPattern=1 3;strokeWidth=2;rounded=0;exitX=0;exitY=0;exitDx=95;exitDy=0;exitPerimeter=0;" edge="1" parent="1" source="UP0Hu_sTVNUc8gQ7AmKu-58">
          <mxGeometry width="50" height="50" relative="1" as="geometry">
            <mxPoint x="1720" y="-1560" as="sourcePoint" />
            <mxPoint x="1820" y="-1750" as="targetPoint" />
          </mxGeometry>
        </mxCell>
        <mxCell id="UP0Hu_sTVNUc8gQ7AmKu-60" value="CẬP NHẬT/ THÊM/XÓA NỢ XẤU" style="ellipse;whiteSpace=wrap;html=1;" vertex="1" parent="1">
          <mxGeometry x="2110" y="-1820" width="120" height="80" as="geometry" />
        </mxCell>
        <mxCell id="UP0Hu_sTVNUc8gQ7AmKu-61" value="&amp;lt;&amp;lt;extend&amp;gt;&amp;gt;" style="html=1;verticalAlign=bottom;labelBackgroundColor=none;endArrow=open;endFill=0;dashed=1;rounded=0;entryX=1;entryY=0.5;entryDx=0;entryDy=0;exitX=0;exitY=0.5;exitDx=0;exitDy=0;" edge="1" parent="1" source="UP0Hu_sTVNUc8gQ7AmKu-47" target="UP0Hu_sTVNUc8gQ7AmKu-42">
          <mxGeometry width="160" relative="1" as="geometry">
            <mxPoint x="1490" y="-1760" as="sourcePoint" />
            <mxPoint x="1650" y="-1760" as="targetPoint" />
          </mxGeometry>
        </mxCell>
        <mxCell id="UP0Hu_sTVNUc8gQ7AmKu-62" value="Condition: LÀ KHÁCH HÀNG ĐÃ ĐĂNG KÝ" style="shape=note2;boundedLbl=1;whiteSpace=wrap;html=1;size=25;verticalAlign=top;align=center;" vertex="1" parent="1">
          <mxGeometry x="1960" y="-2030" width="120" height="90" as="geometry" />
        </mxCell>
        <mxCell id="UP0Hu_sTVNUc8gQ7AmKu-63" value="" style="endArrow=none;dashed=1;html=1;rounded=0;entryX=0.5;entryY=1;entryDx=0;entryDy=0;entryPerimeter=0;" edge="1" parent="1" target="UP0Hu_sTVNUc8gQ7AmKu-62">
          <mxGeometry width="50" height="50" relative="1" as="geometry">
            <mxPoint x="1900" y="-1860" as="sourcePoint" />
            <mxPoint x="1860" y="-1840" as="targetPoint" />
          </mxGeometry>
        </mxCell>
        <mxCell id="UP0Hu_sTVNUc8gQ7AmKu-68" value="&amp;lt;&amp;lt;extend&amp;gt;&amp;gt;" style="html=1;verticalAlign=bottom;labelBackgroundColor=none;endArrow=open;endFill=0;dashed=1;rounded=0;entryX=0.5;entryY=1;entryDx=0;entryDy=0;exitX=0;exitY=0.5;exitDx=0;exitDy=0;" edge="1" parent="1" source="UP0Hu_sTVNUc8gQ7AmKu-71" target="UP0Hu_sTVNUc8gQ7AmKu-42">
          <mxGeometry width="160" relative="1" as="geometry">
            <mxPoint x="2159.9999999999995" y="-1639.5000000000005" as="sourcePoint" />
            <mxPoint x="1682" y="-1645" as="targetPoint" />
          </mxGeometry>
        </mxCell>
        <mxCell id="UP0Hu_sTVNUc8gQ7AmKu-69" value="Condition: Là nhân viên giao dịch/Đại diện cho vay" style="shape=note2;boundedLbl=1;whiteSpace=wrap;html=1;size=25;verticalAlign=top;align=center;" vertex="1" parent="1">
          <mxGeometry x="1490" y="-1520" width="120" height="90" as="geometry" />
        </mxCell>
        <mxCell id="UP0Hu_sTVNUc8gQ7AmKu-70" value="" style="endArrow=none;dashed=1;html=1;dashPattern=1 3;strokeWidth=2;rounded=0;exitX=0;exitY=0;exitDx=95;exitDy=0;exitPerimeter=0;" edge="1" parent="1" source="UP0Hu_sTVNUc8gQ7AmKu-69">
          <mxGeometry width="50" height="50" relative="1" as="geometry">
            <mxPoint x="2000" y="-1500" as="sourcePoint" />
            <mxPoint x="1530" y="-1620" as="targetPoint" />
          </mxGeometry>
        </mxCell>
        <mxCell id="UP0Hu_sTVNUc8gQ7AmKu-71" value="XEM DANH SÁCH CÁC NỢ XẤU" style="ellipse;whiteSpace=wrap;html=1;" vertex="1" parent="1">
          <mxGeometry x="1620" y="-1630" width="120" height="80" as="geometry" />
        </mxCell>
        <mxCell id="UP0Hu_sTVNUc8gQ7AmKu-72" value="QUẢN LÝ GÓI VAY" style="ellipse;whiteSpace=wrap;html=1;" vertex="1" parent="1">
          <mxGeometry x="2970" y="-943" width="140" height="50" as="geometry" />
        </mxCell>
        <mxCell id="UP0Hu_sTVNUc8gQ7AmKu-73" value="" style="endArrow=none;html=1;rounded=0;exitX=0;exitY=0.5;exitDx=0;exitDy=0;" edge="1" parent="1" source="UP0Hu_sTVNUc8gQ7AmKu-72" target="q-VrSPOYVZLqt5bqGyS9-6">
          <mxGeometry width="50" height="50" relative="1" as="geometry">
            <mxPoint x="2880" y="-900" as="sourcePoint" />
            <mxPoint x="2920" y="-970" as="targetPoint" />
          </mxGeometry>
        </mxCell>
        <mxCell id="UP0Hu_sTVNUc8gQ7AmKu-74" value="THÊM/XÓA/SỬA" style="shape=note;whiteSpace=wrap;html=1;backgroundOutline=1;darkOpacity=0.05;" vertex="1" parent="1">
          <mxGeometry x="3065" y="-833" width="170" height="70" as="geometry" />
        </mxCell>
        <mxCell id="UP0Hu_sTVNUc8gQ7AmKu-75" value="" style="endArrow=none;dashed=1;html=1;dashPattern=1 3;strokeWidth=2;rounded=0;exitX=0;exitY=0;exitDx=70;exitDy=0;exitPerimeter=0;entryX=0.558;entryY=1.031;entryDx=0;entryDy=0;entryPerimeter=0;" edge="1" parent="1" source="UP0Hu_sTVNUc8gQ7AmKu-74" target="UP0Hu_sTVNUc8gQ7AmKu-72">
          <mxGeometry width="50" height="50" relative="1" as="geometry">
            <mxPoint x="3230" y="-900" as="sourcePoint" />
            <mxPoint x="3280" y="-950" as="targetPoint" />
          </mxGeometry>
        </mxCell>
        <mxCell id="UP0Hu_sTVNUc8gQ7AmKu-78" value="&amp;lt;&amp;lt;include&amp;gt;&amp;gt;" style="html=1;verticalAlign=bottom;labelBackgroundColor=none;endArrow=open;endFill=0;dashed=1;rounded=0;exitX=1;exitY=0.5;exitDx=0;exitDy=0;entryX=0;entryY=0.5;entryDx=0;entryDy=0;" edge="1" parent="1" source="ky-Em5fr_ZoJciQnDSSW-87" target="ky-Em5fr_ZoJciQnDSSW-94">
          <mxGeometry width="160" relative="1" as="geometry">
            <mxPoint x="2190" y="-2560" as="sourcePoint" />
            <mxPoint x="2350" y="-2560" as="targetPoint" />
          </mxGeometry>
        </mxCell>
        <mxCell id="UP0Hu_sTVNUc8gQ7AmKu-79" value="QUẢN LÝ CÁC YÊU CẦU VAY" style="ellipse;whiteSpace=wrap;html=1;" vertex="1" parent="1">
          <mxGeometry x="1330" y="-2510" width="120" height="80" as="geometry" />
        </mxCell>
        <mxCell id="UP0Hu_sTVNUc8gQ7AmKu-82" value="XEM TÌNH TRẠNG DUYỆT VAY" style="ellipse;whiteSpace=wrap;html=1;" vertex="1" parent="1">
          <mxGeometry x="2510" y="-2505" width="130" height="70" as="geometry" />
        </mxCell>
        <mxCell id="UP0Hu_sTVNUc8gQ7AmKu-83" value="&amp;lt;&amp;lt;include&amp;gt;&amp;gt;" style="html=1;verticalAlign=bottom;labelBackgroundColor=none;endArrow=open;endFill=0;dashed=1;rounded=0;entryX=0;entryY=0.5;entryDx=0;entryDy=0;" edge="1" parent="1" source="UP0Hu_sTVNUc8gQ7AmKu-79" target="UP0Hu_sTVNUc8gQ7AmKu-82">
          <mxGeometry width="160" relative="1" as="geometry">
            <mxPoint x="2231" y="-2485" as="sourcePoint" />
            <mxPoint x="2351" y="-2490" as="targetPoint" />
          </mxGeometry>
        </mxCell>
        <mxCell id="UP0Hu_sTVNUc8gQ7AmKu-84" value="DUYỆT YÊU CẦU VAY" style="ellipse;whiteSpace=wrap;html=1;" vertex="1" parent="1">
          <mxGeometry x="2520" y="-2380" width="120" height="80" as="geometry" />
        </mxCell>
        <mxCell id="UP0Hu_sTVNUc8gQ7AmKu-85" value="&amp;lt;&amp;lt;extend&amp;gt;&amp;gt;" style="html=1;verticalAlign=bottom;labelBackgroundColor=none;endArrow=open;endFill=0;dashed=1;rounded=0;exitX=0;exitY=0.5;exitDx=0;exitDy=0;entryX=0.992;entryY=0.643;entryDx=0;entryDy=0;entryPerimeter=0;" edge="1" parent="1" source="UP0Hu_sTVNUc8gQ7AmKu-84" target="UP0Hu_sTVNUc8gQ7AmKu-79">
          <mxGeometry width="160" relative="1" as="geometry">
            <mxPoint x="2310" y="-2230" as="sourcePoint" />
            <mxPoint x="2300" y="-2320" as="targetPoint" />
            <Array as="points">
              <mxPoint x="2210" y="-2450" />
            </Array>
          </mxGeometry>
        </mxCell>
        <mxCell id="UP0Hu_sTVNUc8gQ7AmKu-88" value="THÊM/XÓA/SỬA/XEM KHÁCH HÀNG" style="shape=note;whiteSpace=wrap;html=1;backgroundOutline=1;darkOpacity=0.05;" vertex="1" parent="1">
          <mxGeometry x="3235" y="-1280" width="140" height="70" as="geometry" />
        </mxCell>
        <mxCell id="UP0Hu_sTVNUc8gQ7AmKu-91" value="" style="endArrow=none;dashed=1;html=1;rounded=0;exitX=1;exitY=0;exitDx=0;exitDy=0;entryX=0;entryY=0.5;entryDx=0;entryDy=0;entryPerimeter=0;" edge="1" parent="1" source="ky-Em5fr_ZoJciQnDSSW-16" target="UP0Hu_sTVNUc8gQ7AmKu-88">
          <mxGeometry width="50" height="50" relative="1" as="geometry">
            <mxPoint x="3160" y="-1230" as="sourcePoint" />
            <mxPoint x="3210" y="-1280" as="targetPoint" />
          </mxGeometry>
        </mxCell>
        <mxCell id="UP0Hu_sTVNUc8gQ7AmKu-92" value="THÊM/XÓA/SỬA/XEM THÔNG TIN&amp;nbsp; NHÂN VIÊN" style="shape=note;whiteSpace=wrap;html=1;backgroundOutline=1;darkOpacity=0.05;" vertex="1" parent="1">
          <mxGeometry x="3232.5" y="-1780" width="170" height="70" as="geometry" />
        </mxCell>
        <mxCell id="UP0Hu_sTVNUc8gQ7AmKu-93" value="" style="endArrow=none;dashed=1;html=1;rounded=0;exitX=0.5;exitY=0;exitDx=0;exitDy=0;exitPerimeter=0;entryX=0.421;entryY=0.977;entryDx=0;entryDy=0;entryPerimeter=0;" edge="1" parent="1" source="UP0Hu_sTVNUc8gQ7AmKu-92" target="ky-Em5fr_ZoJciQnDSSW-59">
          <mxGeometry width="50" height="50" relative="1" as="geometry">
            <mxPoint x="3302.5" y="-1790" as="sourcePoint" />
            <mxPoint x="3352.5" y="-1840" as="targetPoint" />
          </mxGeometry>
        </mxCell>
        <mxCell id="UP0Hu_sTVNUc8gQ7AmKu-94" value="THÊM/XÓA/SỬA/XEM THÔNG TIN CÁ NHÂN" style="shape=note;whiteSpace=wrap;html=1;backgroundOutline=1;darkOpacity=0.05;" vertex="1" parent="1">
          <mxGeometry x="1570" y="-2920" width="140" height="80" as="geometry" />
        </mxCell>
        <mxCell id="UP0Hu_sTVNUc8gQ7AmKu-96" value="" style="endArrow=none;dashed=1;html=1;rounded=0;exitX=1;exitY=0;exitDx=0;exitDy=0;entryX=0;entryY=0.5;entryDx=0;entryDy=0;entryPerimeter=0;" edge="1" parent="1" source="ky-Em5fr_ZoJciQnDSSW-47" target="UP0Hu_sTVNUc8gQ7AmKu-94">
          <mxGeometry width="50" height="50" relative="1" as="geometry">
            <mxPoint x="1510" y="-2790" as="sourcePoint" />
            <mxPoint x="1560" y="-2840" as="targetPoint" />
          </mxGeometry>
        </mxCell>
        <mxCell id="UP0Hu_sTVNUc8gQ7AmKu-99" value="&amp;lt;&amp;lt;extend&amp;gt;&amp;gt;" style="html=1;verticalAlign=bottom;labelBackgroundColor=none;endArrow=open;endFill=0;dashed=1;rounded=0;exitX=0.5;exitY=0;exitDx=0;exitDy=0;entryX=0.694;entryY=0.986;entryDx=0;entryDy=0;entryPerimeter=0;" edge="1" parent="1" source="ky-Em5fr_ZoJciQnDSSW-80" target="ky-Em5fr_ZoJciQnDSSW-72">
          <mxGeometry width="160" relative="1" as="geometry">
            <mxPoint x="1770" y="-880" as="sourcePoint" />
            <mxPoint x="1930" y="-880" as="targetPoint" />
          </mxGeometry>
        </mxCell>
        <mxCell id="UP0Hu_sTVNUc8gQ7AmKu-100" value="&amp;lt;&amp;lt;extend&amp;gt;&amp;gt;" style="html=1;verticalAlign=bottom;labelBackgroundColor=none;endArrow=open;endFill=0;dashed=1;rounded=0;exitX=0.611;exitY=0.063;exitDx=0;exitDy=0;exitPerimeter=0;entryX=0.98;entryY=0.807;entryDx=0;entryDy=0;entryPerimeter=0;" edge="1" parent="1" source="ky-Em5fr_ZoJciQnDSSW-76" target="ky-Em5fr_ZoJciQnDSSW-72">
          <mxGeometry width="160" relative="1" as="geometry">
            <mxPoint x="2020" y="-990" as="sourcePoint" />
            <mxPoint x="2180" y="-990" as="targetPoint" />
          </mxGeometry>
        </mxCell>
        <mxCell id="UP0Hu_sTVNUc8gQ7AmKu-103" value="" style="endArrow=none;html=1;rounded=0;entryX=0;entryY=0.5;entryDx=0;entryDy=0;" edge="1" parent="1" source="q-VrSPOYVZLqt5bqGyS9-7" target="ky-Em5fr_ZoJciQnDSSW-80">
          <mxGeometry width="50" height="50" relative="1" as="geometry">
            <mxPoint x="1540" y="-850" as="sourcePoint" />
            <mxPoint x="1670" y="-860" as="targetPoint" />
          </mxGeometry>
        </mxCell>
        <mxCell id="UP0Hu_sTVNUc8gQ7AmKu-105" value="" style="endArrow=none;html=1;rounded=0;entryX=0.5;entryY=1;entryDx=0;entryDy=0;" edge="1" parent="1" target="ky-Em5fr_ZoJciQnDSSW-76">
          <mxGeometry width="50" height="50" relative="1" as="geometry">
            <mxPoint x="1430" y="-900" as="sourcePoint" />
            <mxPoint x="2120" y="-870" as="targetPoint" />
            <Array as="points">
              <mxPoint x="1730" y="-760" />
              <mxPoint x="1860" y="-750" />
            </Array>
          </mxGeometry>
        </mxCell>
        <mxCell id="UP0Hu_sTVNUc8gQ7AmKu-107" value="" style="endArrow=none;html=1;rounded=0;entryX=0.5;entryY=1;entryDx=0;entryDy=0;" edge="1" parent="1" source="q-VrSPOYVZLqt5bqGyS9-6" target="UP0Hu_sTVNUc8gQ7AmKu-84">
          <mxGeometry width="50" height="50" relative="1" as="geometry">
            <mxPoint x="2510" y="-1110" as="sourcePoint" />
            <mxPoint x="2530" y="-2010" as="targetPoint" />
          </mxGeometry>
        </mxCell>
        <mxCell id="UP0Hu_sTVNUc8gQ7AmKu-108" value="" style="endArrow=classic;html=1;rounded=0;" edge="1" parent="1">
          <mxGeometry width="50" height="50" relative="1" as="geometry">
            <mxPoint x="2920" y="-1790" as="sourcePoint" />
            <mxPoint x="3150" y="-1462" as="targetPoint" />
          </mxGeometry>
        </mxCell>
        <mxCell id="UP0Hu_sTVNUc8gQ7AmKu-109" value="" style="endArrow=classic;html=1;rounded=0;exitX=0.75;exitY=0.1;exitDx=0;exitDy=0;exitPerimeter=0;" edge="1" parent="1" source="q-VrSPOYVZLqt5bqGyS9-6">
          <mxGeometry width="50" height="50" relative="1" as="geometry">
            <mxPoint x="3150" y="-1360" as="sourcePoint" />
            <mxPoint x="3150" y="-1390" as="targetPoint" />
          </mxGeometry>
        </mxCell>
        <mxCell id="UP0Hu_sTVNUc8gQ7AmKu-110" value="" style="endArrow=none;html=1;rounded=0;exitX=0.5;exitY=0.5;exitDx=0;exitDy=0;exitPerimeter=0;entryX=1;entryY=1;entryDx=0;entryDy=0;" edge="1" parent="1" source="q-VrSPOYVZLqt5bqGyS9-6" target="UP0Hu_sTVNUc8gQ7AmKu-79">
          <mxGeometry width="50" height="50" relative="1" as="geometry">
            <mxPoint x="2590" y="-1280" as="sourcePoint" />
            <mxPoint x="2270" y="-2290" as="targetPoint" />
            <Array as="points">
              <mxPoint x="2080" y="-2430" />
            </Array>
          </mxGeometry>
        </mxCell>
        <mxCell id="UP0Hu_sTVNUc8gQ7AmKu-111" value="" style="endArrow=none;html=1;rounded=0;entryX=0.5;entryY=1;entryDx=0;entryDy=0;" edge="1" parent="1" target="UP0Hu_sTVNUc8gQ7AmKu-42">
          <mxGeometry width="50" height="50" relative="1" as="geometry">
            <mxPoint x="2820" y="-1140" as="sourcePoint" />
            <mxPoint x="1420" y="-1240" as="targetPoint" />
            <Array as="points">
              <mxPoint x="1340" y="-1140" />
            </Array>
          </mxGeometry>
        </mxCell>
        <mxCell id="UP0Hu_sTVNUc8gQ7AmKu-114" value="&amp;lt;&amp;lt;include&amp;gt;&amp;gt;" style="html=1;verticalAlign=bottom;labelBackgroundColor=none;endArrow=open;endFill=0;dashed=1;rounded=0;exitX=0.98;exitY=0.66;exitDx=0;exitDy=0;exitPerimeter=0;" edge="1" parent="1" source="ky-Em5fr_ZoJciQnDSSW-81">
          <mxGeometry width="160" relative="1" as="geometry">
            <mxPoint x="1540" y="-2580" as="sourcePoint" />
            <mxPoint x="1690" y="-2570" as="targetPoint" />
          </mxGeometry>
        </mxCell>
        <mxCell id="UP0Hu_sTVNUc8gQ7AmKu-115" value="XEM DANH SÁCH CÁC GÓI VAY" style="ellipse;whiteSpace=wrap;html=1;" vertex="1" parent="1">
          <mxGeometry x="1710" y="-2590" width="120" height="50" as="geometry" />
        </mxCell>
        <mxCell id="UP0Hu_sTVNUc8gQ7AmKu-116" value="&amp;lt;&amp;lt;extend&amp;gt;&amp;gt;" style="html=1;verticalAlign=bottom;labelBackgroundColor=none;endArrow=open;endFill=0;dashed=1;rounded=0;exitX=0.5;exitY=0;exitDx=0;exitDy=0;entryX=0.5;entryY=1;entryDx=0;entryDy=0;" edge="1" parent="1" source="UP0Hu_sTVNUc8gQ7AmKu-115" target="ky-Em5fr_ZoJciQnDSSW-87">
          <mxGeometry width="160" relative="1" as="geometry">
            <mxPoint x="1830" y="-2610" as="sourcePoint" />
            <mxPoint x="1990" y="-2610" as="targetPoint" />
          </mxGeometry>
        </mxCell>
        <mxCell id="UP0Hu_sTVNUc8gQ7AmKu-117" value="" style="endArrow=none;html=1;rounded=0;exitX=-0.008;exitY=0.357;exitDx=0;exitDy=0;exitPerimeter=0;" edge="1" parent="1" source="UP0Hu_sTVNUc8gQ7AmKu-79">
          <mxGeometry width="50" height="50" relative="1" as="geometry">
            <mxPoint x="1380" y="-2510" as="sourcePoint" />
            <mxPoint x="1080" y="-2710" as="targetPoint" />
          </mxGeometry>
        </mxCell>
        <mxCell id="UP0Hu_sTVNUc8gQ7AmKu-118" value="" style="endArrow=none;html=1;rounded=0;exitX=0.5;exitY=0;exitDx=0;exitDy=0;" edge="1" parent="1" source="ky-Em5fr_ZoJciQnDSSW-72" target="q-VrSPOYVZLqt5bqGyS9-6">
          <mxGeometry width="50" height="50" relative="1" as="geometry">
            <mxPoint x="2620" y="-960" as="sourcePoint" />
            <mxPoint x="2670" y="-1010" as="targetPoint" />
          </mxGeometry>
        </mxCell>
      </root>
    </mxGraphModel>
  </diagram>
</mxfile>
